<?xml version="1.0" encoding="utf-8"?>
<!-- Generator: Adobe Illustrator 14.0.0, SVG Export Plug-In . SVG Version: 6.00 Build 43363)  -->
<!DOCTYPE svg PUBLIC "-//W3C//DTD SVG 1.1//EN" "http://www.w3.org/Graphics/SVG/1.1/DTD/svg11.dtd">
<svg version="1.1" id="Layer_1" xmlns="http://www.w3.org/2000/svg" xmlns:xlink="http://www.w3.org/1999/xlink" x="0px" y="0px"
	 width="281.703px" height="70.03px" viewBox="0 0 281.703 70.03" enable-background="new 0 0 281.703 70.03" xml:space="preserve">
<g>
	<rect fill="#4D72A2" width="281.703" height="70.03"/>
	<g>
		<path fill="#FFFFFF" d="M17.49,49.96V19.021h5.79V49.96H17.49z"/>
		<path fill="#FFFFFF" d="M44.403,49.96V38.557c0-3.315-1.812-5.834-5.259-5.834c-3.315,0-5.569,2.784-5.569,6.099V49.96h-5.347
			V28.126h4.817l0.354,2.961c2.209-2.166,4.419-3.271,7.159-3.271c5.127,0,9.238,3.846,9.238,10.696V49.96H44.403z"/>
		<path fill="#FFFFFF" d="M61.108,22.026v6.188h6.01v4.642h-6.055v9.414c0,2.076,1.149,3.094,2.829,3.094
			c0.84,0,1.812-0.265,2.607-0.664l1.503,4.598c-1.547,0.619-2.829,0.884-4.464,0.928c-4.729,0.178-7.822-2.519-7.822-7.955v-9.414
			h-4.067v-4.642h4.067v-5.613L61.108,22.026z"/>
		<path fill="#FFFFFF" d="M75.733,40.987c0.354,2.696,2.696,4.641,6.497,4.641c1.989,0,4.596-0.751,5.834-2.033l3.447,3.404
			c-2.299,2.386-6.055,3.535-9.37,3.535c-7.513,0-11.977-4.641-11.977-11.624c0-6.63,4.508-11.403,11.579-11.403
			c7.292,0,11.845,4.509,11.005,13.48H75.733z M87.578,36.523c-0.353-2.828-2.563-4.243-5.658-4.243
			c-2.916,0-5.302,1.415-6.098,4.243H87.578z"/>
		<path fill="#FFFFFF" d="M114.004,25.96l3.978,3.006l-2.431,3.094c1.68,1.9,2.298,4.066,2.298,6.453
			c0,2.696-1.017,6.497-4.596,8.132c3.624,1.813,4.508,4.42,4.508,7.205c0,6.01-4.596,9.723-10.917,9.723
			c-6.32,0-11.049-3.845-11.049-9.723h5.348c0,2.828,2.607,4.685,5.701,4.685c3.094,0,5.524-1.68,5.524-4.685
			c0-3.006-2.829-4.376-5.524-4.376c-6.806,0-11.049-4.154-11.049-10.961s4.95-11.05,11.049-11.05c1.724,0,3.492,0.221,4.995,1.238
			L114.004,25.96z M101.143,38.513c0,3.801,2.563,6.055,5.701,6.055c3.094,0,5.657-2.298,5.657-6.055s-2.563-6.144-5.657-6.144
			C103.707,32.369,101.143,34.712,101.143,38.513z"/>
		<path fill="#FFFFFF" d="M126.287,28.17l0.398,2.521c1.68-2.696,3.934-3.095,6.144-3.095c2.254,0,4.419,0.884,5.612,2.077
			l-2.43,4.686c-1.105-0.929-2.122-1.414-3.89-1.414c-2.828,0-5.436,1.502-5.436,5.524V49.96h-5.392V28.17H126.287z"/>
		<path fill="#FFFFFF" d="M146.349,22.026c0,4.199-6.364,4.199-6.364,0S146.349,17.827,146.349,22.026z M140.47,28.081V49.96h5.392
			V28.081H140.47z"/>
		<path fill="#FFFFFF" d="M178.346,34.226c0.132,7.823-4.641,15.734-15.469,15.734c-3.801,0-8.353,0-12.154,0V19.021
			c3.801,0,8.353,0,12.154,0C173.484,19.021,178.213,26.579,178.346,34.226z M156.513,44.346h6.364
			c7.027,0,9.812-5.126,9.679-10.164c-0.132-4.818-2.961-9.636-9.679-9.636h-6.364V44.346z"/>
		<path fill="#FFFFFF" d="M204.152,44.126h-16.176l-2.652,5.834h-6.32l13.877-30.939h6.364l13.878,30.939h-6.365L204.152,44.126z
			 M196.064,25.519l-5.746,13.171h11.492L196.064,25.519z"/>
		<path fill="#FFFFFF" d="M218.688,24.325h-9.811v-5.305c8.928,0,16.486,0,25.458,0v5.305h-9.812V49.96h-5.834V24.325z"/>
		<path fill="#FFFFFF" d="M255.242,44.126h-16.177l-2.651,5.834h-6.32l13.878-30.939h6.364l13.878,30.939h-6.364L255.242,44.126z
			 M247.154,25.519l-5.746,13.171h11.491L247.154,25.519z"/>
	</g>
</g>
</svg>
